<!-- Generated by IcoMoon.io -->
<svg version="1.1" xmlns="http://www.w3.org/2000/svg" width="24" height="24" viewBox="0 0 24 24">
<title>shuffle</title>
<path d="M18.112 8.033h1.104v3.434l4.784-4.829-4.786-4.83v2.864h-1.104c-4.433 0-6.931 3.286-9.137 6.182-1.982 2.606-3.696 4.859-6.463 4.859h-2.51v3.359h2.512c4.433 0 6.931-3.283 9.137-6.182 1.982-2.608 3.696-4.858 6.463-4.858zM6.492 10.15c0.19-0.244 0.379-0.494 0.572-0.748 0.468-0.617 0.965-1.266 1.502-1.915-1.586-1.481-3.498-2.573-6.055-2.573h-2.512v3.359h2.512c1.592 0 2.834 0.748 3.98 1.877zM19.214 15.953h-1.104c-1.688 0-2.984-0.841-4.189-2.086-0.12 0.157-0.241 0.317-0.364 0.476-0.529 0.696-1.098 1.441-1.727 2.182 1.627 1.589 3.6 2.789 6.278 2.789h1.104v2.878l4.787-4.83-4.786-4.83v3.421z"></path>
</svg>
