<?xml version="1.0" encoding="UTF-8"?>
<svg xmlns="http://www.w3.org/2000/svg" xmlns:xlink="http://www.w3.org/1999/xlink" width="45px" height="150px" viewBox="0 0 45 149" version="1.1">
<g id="surface1">
<path style="fill-rule:nonzero;fill:rgb(80%,80%,80%);fill-opacity:1;stroke-width:5;stroke-linecap:butt;stroke-linejoin:miter;stroke:rgb(0%,0%,0%);stroke-opacity:1;stroke-miterlimit:4;" d="M 408.200378 714.029635 C 373.013455 710.461553 362.887073 671.860028 353.917562 643.631534 C 332.192417 571.697803 334.566257 493.034399 362.751854 423.208395 C 379.534003 379.668765 401.138955 334.337567 391.598521 286.356655 C 389.209656 246.836762 375.297149 204.2155 393.02583 166.532342 C 410.063392 140.125526 451.530476 138.529675 469.739934 164.605277 C 489.166361 200.79797 472.09875 242.786914 468.08726 280.786232 C 458.952483 318.424224 464.226014 357.447295 478.348861 393.143167 C 504.220715 460.846388 517.006399 535.59544 499.157524 606.957074 C 489.857479 642.186235 480.96309 681.073809 453.949389 707.224686 C 440.728 715.776038 423.329854 716.062087 408.200378 714.029635 Z M 408.200378 714.029635 " transform="matrix(0.259995,0,0,0.259462,-87.587243,-37.189266)"/>
<path style=" stroke:none;fill-rule:nonzero;fill:rgb(69.411765%,7.45098%,7.45098%);fill-opacity:1;" d="M 27.457031 32.46875 C 19.105469 32.535156 14.304688 33.066406 14.304688 33.910156 C 14.304688 34.964844 14.535156 42.195312 15.265625 42.480469 C 15.824219 42.699219 14.855469 42.761719 16.75 42.410156 L 30.054688 41.914062 L 31.578125 41.90625 C 32.425781 41.898438 33.210938 41.746094 33.355469 41.566406 C 33.632812 41.21875 34.804688 33.539062 34.601562 33.375 C 34.535156 33.324219 33.925781 33.125 33.242188 32.929688 L 32.003906 32.582031 C 33.089844 32.441406 28.058594 32.453125 27.457031 32.46875 Z M 32.574219 45.726562 Z M 14.65625 50.265625 C 14.550781 50.351562 14.441406 51.332031 14.183594 52.445312 C 13.929688 53.5625 13.742188 55.847656 13.097656 57.523438 C 12.632812 58.722656 12.28125 59.773438 12.144531 60.3125 C 12.285156 60.226562 12.5625 60.210938 13.015625 60.261719 C 13.820312 60.359375 14.042969 60.410156 13.675781 60.515625 C 16.679688 60.035156 25.40625 60.078125 29.902344 60.492188 L 29.730469 60.464844 L 31.617188 60.289062 C 32.660156 60.191406 34.636719 59.828125 34.777344 59.703125 C 34.917969 59.582031 34.09375 58.554688 33.859375 57.199219 C 33.628906 55.84375 33.167969 53.898438 33.15625 52.796875 C 33.132812 50.550781 33 50.355469 30.441406 49.949219 C 29.238281 49.40625 18.523438 49.75 14.65625 50.265625 Z M 29.90625 60.492188 L 31.125 60.628906 C 31.234375 60.640625 31.328125 60.65625 31.429688 60.667969 C 31.007812 60.605469 30.488281 60.542969 29.90625 60.492188 Z M 13.679688 60.515625 C 13.511719 60.542969 13.351562 60.566406 13.222656 60.597656 C 12.847656 60.683594 12.503906 60.726562 12.289062 60.726562 C 12.429688 60.742188 12.640625 60.726562 12.925781 60.667969 C 13.285156 60.601562 13.527344 60.558594 13.679688 60.515625 Z M 12.289062 60.726562 C 12.191406 60.714844 12.113281 60.691406 12.074219 60.644531 C 12.074219 60.667969 12.066406 60.695312 12.074219 60.703125 C 12.101562 60.722656 12.1875 60.726562 12.289062 60.726562 Z M 12.074219 60.644531 C 12.074219 60.589844 12.105469 60.46875 12.144531 60.3125 C 12.070312 60.355469 12.113281 60.503906 12.035156 60.492188 C 11.574219 60.421875 12.039062 60.609375 12.074219 60.644531 Z M 12.074219 60.644531 "/>
</g>
</svg>
